<svg width="46" height="46" viewBox="0 0 46 46" fill="none" xmlns="http://www.w3.org/2000/svg">
<path d="M38.3333 5.75H7.66667C7.15833 5.75 6.67082 5.95193 6.31138 6.31138C5.95193 6.67082 5.75 7.15833 5.75 7.66667V38.3333C5.75 38.8417 5.95193 39.3292 6.31138 39.6886C6.67082 40.0481 7.15833 40.25 7.66667 40.25H24.1787V26.91H19.6976V21.6871H24.1787V17.8537C24.1787 13.3975 26.9004 10.9691 30.8871 10.9691C32.2268 10.9653 33.5685 11.0342 34.9025 11.1742V15.8125H32.1521C29.9901 15.8125 29.5684 16.8437 29.5684 18.3521V21.6775H34.7377L34.0668 26.9004H29.5665V40.25H38.3333C38.8417 40.25 39.3292 40.0481 39.6886 39.6886C40.0481 39.3292 40.25 38.8417 40.25 38.3333V7.66667C40.25 7.15833 40.0481 6.67082 39.6886 6.31138C39.3292 5.95193 38.8417 5.75 38.3333 5.75Z" fill="black"/>
</svg>
