<svg id="圖層_1" data-name="圖層 1" xmlns="http://www.w3.org/2000/svg" width="248.47" height="248.47" viewBox="0 0 248.47 248.47">
  <g>
    <path d="M248.47,124.24A124.24,124.24,0,1,0,104.82,247V160.15H73.28V124.24h31.54V96.86c0-31.13,18.55-48.33,46.93-48.33A190.83,190.83,0,0,1,179.56,51V81.53H163.89c-15.43,0-20.24,9.58-20.24,19.4v23.31H178.1l-5.51,35.91H143.65V247A124.27,124.27,0,0,0,248.47,124.24Z" style="fill: #2f6db6"/>
    <path d="M172.59,160.15l5.51-35.91H143.65V100.93c0-9.82,4.81-19.4,20.24-19.4h15.67V51a190.83,190.83,0,0,0-27.81-2.43c-28.38,0-46.93,17.2-46.93,48.33v27.38H73.28v35.91h31.54V247a125.57,125.57,0,0,0,38.83,0V160.15Z" style="fill: #fff"/>
  </g>
</svg>
