<?xml version="1.0" encoding="utf-8"?>
<!-- Generator: Adobe Illustrator 25.2.1, SVG Export Plug-In . SVG Version: 6.00 Build 0)  -->
<svg version="1.1" id="圖層_1" xmlns="http://www.w3.org/2000/svg" xmlns:xlink="http://www.w3.org/1999/xlink" x="0px" y="0px"
	 viewBox="0 0 64 64" style="enable-background:new 0 0 64 64;" xml:space="preserve">
<style type="text/css">
	.st0{fill:#00659F;}
</style>
<path class="st0" d="M56,0H8C3.6,0,0,3.6,0,8v48c0,4.4,3.6,8,8,8h25.3V41.3h-8V32h8v-6.7c0-9.3,5.3-14.7,13.3-14.7
	c4.2,0,6.7,1.3,6.7,1.3v8H48c-3.8,0-5.3,2.8-5.3,5.3V32H52l-1.3,9.3h-8V64H56c4.4,0,8-3.6,8-8V8C64,3.6,60.4,0,56,0z"/>
</svg>
