<svg id="圖層_1" data-name="圖層 1" xmlns="http://www.w3.org/2000/svg" width="18" height="18" viewBox="0 0 18 18">
  <g>
    <path d="M18,9A9,9,0,1,0,7.59,17.84V11.55H5.31V9H7.59V7A3.18,3.18,0,0,1,11,3.46a13.55,13.55,0,0,1,2,.18V5.85H11.87a1.3,1.3,0,0,0-1.46,1.41V9H12.9l-.4,2.6H10.41v6.29A9,9,0,0,0,18,9Z" style="fill: #040000"/>
    <path d="M12.5,11.55,12.9,9H10.41V7.26a1.3,1.3,0,0,1,1.46-1.41H13V3.64a13.55,13.55,0,0,0-2-.18A3.18,3.18,0,0,0,7.59,7V9H5.31v2.6H7.59v6.29a9.09,9.09,0,0,0,2.82,0V11.55Z" style="fill: #fff"/>
  </g>
</svg>
