<svg width="46" height="46" viewBox="0 0 46 46" fill="none" xmlns="http://www.w3.org/2000/svg">
<path d="M22.9981 14.1392C20.6476 14.1392 18.3933 15.0729 16.7313 16.735C15.0692 18.397 14.1354 20.6513 14.1354 23.0018C14.1354 25.3524 15.0692 27.6066 16.7313 29.2687C18.3933 30.9308 20.6476 31.8645 22.9981 31.8645C25.3486 31.8645 27.6029 30.9308 29.265 29.2687C30.927 27.6066 31.8608 25.3524 31.8608 23.0018C31.8608 20.6513 30.927 18.397 29.265 16.735C27.6029 15.0729 25.3486 14.1392 22.9981 14.1392ZM22.9981 28.7576C21.4711 28.7576 20.0066 28.151 18.9268 27.0712C17.847 25.9914 17.2404 24.5269 17.2404 22.9999C17.2404 21.4729 17.847 20.0084 18.9268 18.9286C20.0066 17.8489 21.4711 17.2422 22.9981 17.2422C24.5251 17.2422 25.9896 17.8489 27.0694 18.9286C28.1492 20.0084 28.7558 21.4729 28.7558 22.9999C28.7558 24.5269 28.1492 25.9914 27.0694 27.0712C25.9896 28.151 24.5251 28.7576 22.9981 28.7576Z" fill="black"/>
<path d="M32.2115 15.8796C33.3526 15.8796 34.2777 14.9546 34.2777 13.8135C34.2777 12.6724 33.3526 11.7473 32.2115 11.7473C31.0704 11.7473 30.1453 12.6724 30.1453 13.8135C30.1453 14.9546 31.0704 15.8796 32.2115 15.8796Z" fill="black"/>
<path d="M39.3549 11.7127C38.9112 10.5669 38.2332 9.52631 37.3642 8.65763C36.4951 7.78896 35.4543 7.11129 34.3083 6.66802C32.9673 6.16462 31.5506 5.89243 30.1185 5.86302C28.2728 5.78252 27.6882 5.75952 23.0077 5.75952C18.3272 5.75952 17.7273 5.75952 15.8968 5.86302C14.4658 5.89092 13.0501 6.16317 11.7108 6.66802C10.5646 7.11077 9.52348 7.78826 8.6544 8.657C7.78533 9.52575 7.10745 10.5666 6.66426 11.7127C6.16076 13.0536 5.88919 14.4705 5.86118 15.9025C5.77876 17.7464 5.75385 18.3309 5.75385 23.0134C5.75385 27.6939 5.75385 28.2899 5.86118 30.1242C5.88993 31.5579 6.16018 32.9724 6.66426 34.3159C7.10869 35.4616 7.78723 36.5021 8.65651 37.3707C9.5258 38.2393 10.5667 38.917 11.7128 39.3606C13.0495 39.8842 14.4658 40.1759 15.9007 40.2231C17.7464 40.3036 18.331 40.3285 23.0115 40.3285C27.692 40.3285 28.2919 40.3285 30.1223 40.2231C31.5543 40.194 32.971 39.9224 34.3122 39.42C35.4579 38.9757 36.4984 38.2975 37.3673 37.4286C38.2362 36.5596 38.9145 35.5191 39.3588 34.3734C39.8628 33.0318 40.1331 31.6173 40.1618 30.1836C40.2443 28.3398 40.2692 27.7552 40.2692 23.0728C40.2692 18.3904 40.2692 17.7962 40.1618 15.9619C40.1395 14.5096 39.8666 13.0721 39.3549 11.7127ZM37.0204 29.9824C37.0081 31.0869 36.8065 32.1812 36.4243 33.2177C36.1365 33.963 35.6959 34.6399 35.1307 35.2047C34.5656 35.7695 33.8885 36.2097 33.143 36.4971C32.118 36.8775 31.0354 37.0791 29.9422 37.0932C28.1213 37.1775 27.6077 37.1986 22.9387 37.1986C18.2658 37.1986 17.7886 37.1986 15.9333 37.0932C14.8406 37.0798 13.7585 36.8782 12.7343 36.4971C11.9862 36.2115 11.3064 35.772 10.7389 35.2071C10.1713 34.6422 9.7287 33.9644 9.4396 33.2177C9.06287 32.1924 8.86136 31.111 8.84351 30.0188C8.76109 28.1979 8.74193 27.6843 8.74193 23.0153C8.74193 18.3444 8.74193 17.8671 8.84351 16.0099C8.8559 14.9059 9.05752 13.8122 9.4396 12.7764C10.0242 11.2642 11.2221 10.0739 12.7343 9.4951C13.759 9.11587 14.8408 8.91429 15.9333 8.89902C17.756 8.8166 18.2678 8.7936 22.9387 8.7936C27.6096 8.7936 28.0888 8.7936 29.9422 8.89902C31.0355 8.91217 32.1183 9.11382 33.143 9.4951C33.8885 9.78313 34.5655 10.2238 35.1305 10.7889C35.6956 11.354 36.1363 12.031 36.4243 12.7764C36.8011 13.8018 37.0026 14.8832 37.0204 15.9754C37.1028 17.7981 37.1239 18.3099 37.1239 22.9808C37.1239 27.6498 37.1239 28.1519 37.0415 29.9843H37.0204V29.9824Z" fill="black"/>
</svg>
