<svg id="圖層_1" data-name="圖層 1" xmlns="http://www.w3.org/2000/svg" width="18" height="18" viewBox="0 0 18 18">
  <g>
    <circle cx="9" cy="9" r="9" style="fill: #040000"/>
    <g>
      <path d="M11.79,5.6a.62.62,0,1,0,.62.61A.61.61,0,0,0,11.79,5.6Z" style="fill: #fff"/>
      <path d="M9,6.39A2.6,2.6,0,1,0,11.64,9,2.6,2.6,0,0,0,9,6.39Zm0,4.26A1.67,1.67,0,1,1,10.71,9,1.66,1.66,0,0,1,9,10.65Z" style="fill: #fff"/>
      <path d="M11.11,14.26H6.89a3.18,3.18,0,0,1-3.17-3.17V6.88A3.18,3.18,0,0,1,6.89,3.71h4.22a3.18,3.18,0,0,1,3.17,3.17v4.21A3.18,3.18,0,0,1,11.11,14.26ZM6.89,4.7A2.18,2.18,0,0,0,4.72,6.88v4.21a2.18,2.18,0,0,0,2.17,2.18h4.22a2.18,2.18,0,0,0,2.17-2.18V6.88A2.18,2.18,0,0,0,11.11,4.7Z" style="fill: #fff"/>
    </g>
  </g>
</svg>
