<svg id="圖層_1" data-name="圖層 1" xmlns="http://www.w3.org/2000/svg" width="100" height="100" viewBox="0 0 100 100">
  <g>
    <path d="M50.16.23c12.78,0,25.56,0,38.34,0C96.08.25,100,4.14,100,11.65q0,38.52,0,77.05c0,7.11-3.9,11.23-11,11.25q-38.86.1-77.75,0C4.11,99.94,0,95.71,0,88.51Q0,50.17,0,11.82C0,4.36,4.07.26,11.46.24,24.36.21,37.26.23,50.16.23Zm-.08,86.05h0c4.54,0,9.08.13,13.61,0C77,85.8,85.48,78.65,85.9,66.82c.4-11.08.35-22.19,0-33.27S77.7,14.7,66.69,14.36c-11.19-.35-22.41-.31-33.6,0-9.69.27-17.56,6.82-18.28,16.38a255.27,255.27,0,0,0-.36,36.79c.78,11.29,7.14,17,18.49,18.23A152.91,152.91,0,0,0,50.08,86.28Z" style="fill: #00659f"/>
    <path d="M50,78.88c-5.13,0-10.26.15-15.38,0-8.06-.29-12.86-4.63-13.12-12.58-.35-10.71-.34-21.45,0-32.16C21.7,26.47,25.34,22,33,21.59a348.52,348.52,0,0,1,35.7.32c5.6.28,9.5,4.52,9.71,10.23.43,11.77.56,23.58,0,35.34-.32,7.15-5.1,11-12.35,11.33-5.35.24-10.73,0-16.1,0Zm.25-47.39a18.64,18.64,0,0,0-19,18.69,18.76,18.76,0,0,0,37.52,0A18.52,18.52,0,0,0,50.24,31.49Zm19.08-5.08c-2.72.19-4.42,1.5-4.48,4.4s1.54,4.51,4.32,4.58A4.14,4.14,0,0,0,73.74,31C73.82,28.21,72.19,26.68,69.32,26.41Z" style="fill: #00659f"/>
    <path d="M38.59,50.21a11.5,11.5,0,1,1,23-.24,11.5,11.5,0,1,1-23,.24Z" style="fill: #00659f"/>
  </g>
</svg>
