<svg id="圖層_1" data-name="圖層 1" xmlns="http://www.w3.org/2000/svg" width="320" height="320" viewBox="0 0 320 320">
  <g id="Layer_2" data-name="Layer 2">
    <g id="LINE_LOGO" data-name="LINE LOGO">
      <rect width="320" height="320" rx="40.02" style="fill: #00659f"/>
      <path d="M266.66,144.92c0-47.74-47.86-86.58-106.69-86.58S53.28,97.18,53.28,144.92c0,42.8,38,78.65,89.22,85.42,3.48.75,8.21,2.29,9.4,5.26,1.08,2.7.71,6.93.35,9.65,0,0-1.25,7.53-1.52,9.13-.47,2.7-2.15,10.55,9.24,5.76s61.44-36.18,83.82-61.95h0C259.25,181.24,266.66,164,266.66,144.92Z" style="fill: #fff"/>
      <path d="M231.16,172.49h-30a2,2,0,0,1-2-2h0V123.94h0a2,2,0,0,1,2-2h32v11.57H210.79v7.85h22.37V153H210.79v7.86h22.37v9.56a2,2,0,0,1-1.93,2.07Z" style="fill: #00659f"/>
      <path d="M120.29,172.49a2,2,0,0,0,2-2v-9.56H99.92v-39H88.32v48.53h0a2,2,0,0,0,2,2h30Z" style="fill: #00659f"/>
      <rect x="128.73" y="121.85" width="11.64" height="50.64" style="fill: #00659f"/>
      <path d="M189.84,121.85h-9.56v29.66L159,122.74a1.2,1.2,0,0,0-.17-.21h0l-.12-.12h0l-.11-.09h-.06l-.11-.08h-.06l-.11-.06H147.77v50.56h11.57V142.81l21.33,28.8a2.14,2.14,0,0,0,.52.52h0l.12.08h.06l.1,0h.31a2.5,2.5,0,0,0,.54.07h9.52V123.89a2,2,0,0,0-2-2Z" style="fill: #00659f"/>
    </g>
  </g>
</svg>
