<svg id="圖層_1" data-name="圖層 1" xmlns="http://www.w3.org/2000/svg" width="248.47" height="248.47" viewBox="0 0 248.47 248.47">
  <g>
    <circle cx="123.49" cy="124.98" r="123.49" style="fill: #66af30"/>
    <g id="FULL_COLOR_ICON" data-name="FULL COLOR ICON">
      <g id="TYPE_A" data-name="TYPE A">
        <g>
          <path d="M207.24,118.6c0-37.66-37.75-68.29-84.16-68.29S38.93,80.94,38.93,118.6c0,33.76,29.94,62,70.38,67.37,2.74.6,6.47,1.81,7.41,4.15.85,2.13.56,5.46.28,7.61l-1.2,7.21c-.37,2.12-1.7,8.32,7.28,4.53s48.47-28.53,66.12-48.86h0c12.2-13.37,18-26.94,18-42" style="fill: #fff"/>
          <g>
            <path d="M106,100.4h-5.91A1.64,1.64,0,0,0,98.44,102v36.67a1.64,1.64,0,0,0,1.64,1.63H106a1.64,1.64,0,0,0,1.64-1.63V102A1.64,1.64,0,0,0,106,100.4" style="fill: #66af30"/>
            <path d="M146.62,100.4h-5.91a1.64,1.64,0,0,0-1.64,1.64v21.78l-16.8-22.69-.13-.17h0l-.1-.1,0,0-.08-.07,0,0-.08-.06-.05,0-.09,0-.05,0-.09,0-.06,0-.09,0h-.06l-.1,0H115a1.64,1.64,0,0,0-1.64,1.64v36.67a1.64,1.64,0,0,0,1.64,1.63h5.91a1.64,1.64,0,0,0,1.64-1.63V116.93l16.82,22.72a1.59,1.59,0,0,0,.42.4v0l.1.06,0,0,.08,0,.08,0h0l.11,0h0a1.52,1.52,0,0,0,.42.06h5.91a1.64,1.64,0,0,0,1.64-1.63V102a1.64,1.64,0,0,0-1.64-1.64" style="fill: #66af30"/>
            <path d="M91.76,131.16h-16V102a1.63,1.63,0,0,0-1.64-1.64h-5.9A1.63,1.63,0,0,0,66.54,102V138.7h0a1.63,1.63,0,0,0,.46,1.14l0,0,0,0a1.6,1.6,0,0,0,1.13.46H91.76a1.63,1.63,0,0,0,1.63-1.64v-5.9a1.63,1.63,0,0,0-1.63-1.64" style="fill: #66af30"/>
            <path d="M179.21,109.58a1.63,1.63,0,0,0,1.64-1.64V102a1.64,1.64,0,0,0-1.64-1.64H155.63a1.67,1.67,0,0,0-1.14.46s0,0,0,0l0,0A1.63,1.63,0,0,0,154,102h0V138.7h0a1.67,1.67,0,0,0,.46,1.14,0,0,0,0,1,0,0l0,0a1.59,1.59,0,0,0,1.13.46h23.58a1.63,1.63,0,0,0,1.64-1.64v-5.9a1.63,1.63,0,0,0-1.64-1.64h-16V125h16a1.63,1.63,0,0,0,1.64-1.64v-5.9a1.63,1.63,0,0,0-1.64-1.64h-16v-6.2Z" style="fill: #66af30"/>
          </g>
        </g>
      </g>
    </g>
  </g>
</svg>
